<svg xmlns="http://www.w3.org/2000/svg" viewBox="0 0 1836 538"><defs><style>.cls-1{fill:#82bc00;}.cls-2{fill:#1e1e1f;}.cls-3{fill:#fefefe;}.cls-4{fill:#487a2d;}.cls-5{fill:#f47d20;}.cls-6{fill:#85be42;}</style></defs><title>scilifelab_and_nbis_together</title><g id="Layer_1_Image" data-name="Layer 1 Image"><path class="cls-1" d="M1321,112c3.2,2.1,7.1.4,10.7,2.7-4.9,5.1-10,10.3-15,15.5-1.4,1.5-2.8.4-4.1,0-6.6-1.9-13.2-3.5-20.1-2.9-13.5,1.2-22.1,9-27.5,20.9-4.6,10.1-6.3,21-7.6,31.9-1.2,9.6-2,19.2-3.2,28.8-.5,4.2.2,5.8,5,5.7,15.1-.2,30.3.1,45.5.3,1.8,0,3.5.2,6,.4-5.5,6.5-8.1,13.6-10.1,21-.9,3.5,0,4.3,3.5,4.3,15.3-.2,30.6-.2,46-.4,1.3,0,2.9.6,3.3-1.8,2.2-13.7-11.1-29.9-25.1-30.1-1,0-2,0-3,.1s-2.1.1-2.2-1.3c-.1-1.2.7-1.6,1.8-1.9,21.9-6.2,48.9,15.3,47.5,37.7-.2,3.8-2.7,2.7-4.6,2.7-21,.1-42,.3-63-.1-5.2-.1-6.5,1.7-6.7,6.4-.5,16.1,3.4,30.8,14.1,43,10.9,12.4,27.5,16.1,42.8,10.1,7.7-3,12.9-8.6,16-16.2.5-1.2.6-3.5,2.7-2.7,2.3.8.7,2.6.3,3.8a33.74,33.74,0,0,1-17.6,21.3c-19.5,10-48.6,5.7-64.4-9.4-17.3-16.6-21.5-45.4-9.8-68.4.6-1.2,1.2-2.3,1.8-3.4-.8-1.7-2.1-1.1-3.2-1.1-8.3-.1-16.7.1-25-.1-2.9-.1-4,.7-4.3,3.7-1.8,16.9-3.6,33.8-5.7,50.6-2.9,24.3-2.7,48.9-8,72.9-5,22.6-14.7,42.7-33.6,57.4a68.54,68.54,0,0,1-31.2,13.7c-.8.1-1.7,0-2.1,1h-17c-2.5-.8-5-1.6-8.3-2.7,5.3-4.8,10.2-9.3,15.2-13.8,1.5-1.4,3.1-.2,4.7.2,6.5,1.7,13,3,19.7,2,13-1.9,21.5-9.8,27.4-21,5.5-10.5,7.8-21.9,9-33.6,4.2-41.7,8.2-83.5,12.4-125.2.4-4.1-.7-5.1-4.6-4.9-5.3.3-10.6.1-17.3.1,5.1-5.3,9.3-9.8,13.6-14.2,1.3-1.3,3.2-.8,4.8-.6,4.4.6,6-1,6.3-5.6a136.78,136.78,0,0,1,8-39c7.2-20.4,18.4-37.6,38-48.2a75.26,75.26,0,0,1,27-8.4c1-.1,2.4.5,3-1.1C1315.7,112,1318.3,112,1321,112Z"/><path class="cls-2" d="M1726,272c-1.7.6-1.2,2.3-1.4,3.4-7.3,28.5-31.3,44.4-60.6,40.3a75.7,75.7,0,0,1-17.6-5.1c-7.5-3.2-11.1-1.9-15.5,5-.2.3-.5.5-.6.8-.7,2.7-2.7,3-5,2.7-3-.4-1.7-2.8-1.7-4.3q-.15-70.95-.1-142a55,55,0,0,0-1.4-13.4c-2-7.7-6.4-11.5-14.3-12.5-1.3-.2-3.3.8-3.6-1.6-.3-2.7,1.9-2.1,3.5-2.4,10.4-1.4,20.8-2.6,31.1-4.4,3.7-.6,4.1.5,4.1,3.7-.1,24.2,0,48.3,0,72.5v5.7c14.2-16.2,31.4-18,49.3-12.1,18.5,6.1,29.5,19.7,32.9,39.1.1.7.2,1.3.9,1.5C1726,256.7,1726,264.3,1726,272Zm-83.1-12.4a130.62,130.62,0,0,0,3.3,34.7c3.3,13.8,15.2,21.1,29.1,18,9.1-2,15.3-7.7,19.9-15.4,9.6-16,10.6-33.3,7.2-51.1-2.4-12.4-7.7-23.4-18-31.2-11.5-8.7-25.8-6.3-34.2,5.4a31,31,0,0,0-5.1,12.3C1643,241.3,1642.7,250.5,1642.9,259.6Z"/><path class="cls-2" d="M751,287.3V264.8c0-1.1-.9-2.9,1.2-3.2s2.4,1.2,2.8,2.8c2.7,9.4,5.8,18.8,11,27.1,8.8,13.9,20.4,23.4,38,21.8,19-1.7,32-18.2,29.6-37.3-1.7-13.8-8-24.5-20.2-31.4-10.6-6-21.3-11.5-31.9-17.5-12-6.8-21.4-16-23.8-30.3-3.1-18.1,1.8-33.7,15.4-46.1,13.8-12.6,30-14.7,47.5-9,5.2,1.7,10.2,4,15.4,5.8,4.2,1.5,8.3,1.9,10.1-3.7a2.09,2.09,0,0,1,2.7-1.6c1.6.4,1.1,1.9,1.1,2.9.3,14.8.5,29.6.7,44.4,0,1.1.6,2.4-1.4,2.4-1.5,0-1.9-.8-2.3-2.1-1.2-4.3-2.6-8.6-4-12.8-3.2-9.4-7.8-18-15-25-12.3-12-32.1-12.3-43.2-.7-11.8,12.2-10.9,30.8,2.1,43.3,7.5,7.2,16.9,11,26,15.4,11.7,5.7,23.6,10.9,32.9,20.3,14.9,15,18,33,11.7,52.5S837.1,313.5,817,317c-14.8,2.6-29.1.3-42.9-5.5-2.9-1.2-5.8-2.5-8.8-3.6-4.3-1.6-7.9-.7-10.4,3.2-.7,1.1-1.4,2.4-3,2-1.9-.5-1.1-2.2-1.1-3.4-.1-7.5,0-15,0-22.5C750.9,287.3,750.9,287.3,751,287.3Z"/><path class="cls-1" d="M1088.9,313.9h-67.5a20.85,20.85,0,0,1-2.5,0c-1.6-.4-4.3,1.2-4.5-1.5-.3-2.9,2.6-1.7,4.1-2.2,1.1-.3,2.3-.2,3.5-.5,10.9-2.4,17-9.9,18-22.2.3-3.1.5-6.3.5-9.5q-.15-52.2-.3-104.5c0-1.2-.1-2.3-.2-3.5-1-14.4-7.5-21.4-21.7-23.5-1.5-.2-4,.4-3.9-2,.1-2.6,2.6-1.5,4-1.5q36-.15,72,0c1.3,0,3.3-.9,3.7,1.3.4,2-1.4,2-2.7,2.1-19.1,1.8-22.9,13.3-23,27-.3,34.6-1.3,69.3.6,103.9,1.1,19.5,11.7,30.1,31.1,31.7a95.78,95.78,0,0,0,23.9-.9c16.6-3,27.5-12.7,33.2-28.3,1.7-4.8,2.8-9.9,4.3-14.8.3-1.1,0-3,2.1-2.8,2.4.1,1.7,2,1.7,3.4-.4,15-.9,30-1.2,44.9-.1,3.7-2.2,3.4-4.6,3.4C1135.8,313.8,1112.3,313.9,1088.9,313.9Z"/><path class="cls-2" d="M918.1,315.9c-26.4.2-45.4-13.2-51.6-36.1-8.2-30,7.1-61.5,34.7-70.8,13.4-4.6,27.1-4.9,40.6-.1a26.94,26.94,0,0,1,11.2,7.3c3.3,3.6,4.7,7.7,3,12.4-1.3,3.6-4.1,5.5-8,5.7-5.3.3-8.3-2.9-10.6-7a41.89,41.89,0,0,1-2.6-7c-3.5-10.1-10.7-13.8-21.1-10.7a28.28,28.28,0,0,0-17.1,13.7c-11.5,20.7-14.2,42.1-3.6,64,5.9,12.2,15,21.2,29.3,22.9,14,1.7,23.6-3.9,29.8-16.6.6-1.3.5-4.1,2.9-3.1s.5,2.9,0,4.2c-5.4,14.1-16.5,20.2-30.9,21.2C922.1,316,920.1,315.9,918.1,315.9Z"/><path class="cls-1" d="M1205.9,252.4c0,13-.1,26,0,39,.1,11.8,3,15.5,14.4,18.8,1.3.4,3.5.2,3.1,2.4s-2.4,1.3-3.8,1.3q-24,.15-48,0c-1.2,0-3.3,1-3.6-1.4-.2-2,1.7-1.9,2.8-2,10.8-1.1,14.4-7.2,15-17.8,1-17.5.7-35,.4-52.4a99.41,99.41,0,0,0-.8-13.4c-1.1-7.5-5.3-12.4-13.2-13.5-1.2-.2-3,.4-3-1.6s1.8-1.6,3-1.7c9.7-1.3,19.5-2.4,29.2-3.8,3.5-.5,4.2.7,4.2,4-.1,14.2-.1,28.3-.1,42.5C1205.7,252.4,1205.8,252.4,1205.9,252.4Z"/><path class="cls-2" d="M993.2,250.8c0,13.5-.1,27,0,40.5.2,11.9,3.2,15.5,14.5,18.8,1.3.4,3.5.2,3,2.4s-2.4,1.2-3.7,1.2q-24,.15-48,0c-1.3,0-3.4.9-3.4-1.6-.1-1.9,1.8-1.7,3-2,10.9-2.7,13.8-5.6,14.6-16.9a486.63,486.63,0,0,0,.1-63.9c-.6-10.4-4.2-14-14.2-16.3-1.1-.3-2.4,0-2.2-1.9.1-1.5,1.2-1.3,2.2-1.4,10.4-1.3,20.8-2.5,31.2-4,3.6-.5,2.8,1.6,2.8,3.5v41.5C993.1,250.8,993.1,250.8,993.2,250.8Z"/><path class="cls-2" d="M983,162a11.85,11.85,0,0,1,11.8,11.6,12.06,12.06,0,0,1-12.2,11.9,11.74,11.74,0,0,1-11.7-11.8A11.56,11.56,0,0,1,983,162Z"/><path class="cls-1" d="M1184,173.8a11.9,11.9,0,0,1,23.8-.3,12,12,0,0,1-11.6,12A11.76,11.76,0,0,1,1184,173.8Z"/><path class="cls-2" d="M1438.5,313.9h-72c-1.1,0-2.4.3-2.5-1.5s1-1.8,2.2-1.9a55,55,0,0,0,6.9-1.1c9.1-2.5,14.4-8.4,16-17.7a75,75,0,0,0,1.1-13.4c0-34.6-.1-69.3-.2-103.9a60.16,60.16,0,0,0-1.1-10.4c-1.8-8.9-8.6-15.2-17.7-16.7-1.5-.2-3-.3-4.5-.6-1.2-.2-2.9.1-2.7-2,.2-1.9,1.7-1.2,2.7-1.3h74.5c1,0,2.5-.6,2.8,1.2.3,2.1-1.3,1.9-2.6,2.1a62.56,62.56,0,0,0-7.3,1.4c-8.6,2.4-13.3,8.3-15.1,16.8a81.82,81.82,0,0,0-1.2,16.4c0,29,0,58,.2,87a98.67,98.67,0,0,0,1.1,14.4c2,13.8,10.1,22.6,23.7,25.5a75.62,75.62,0,0,0,36.6-1.2c13.9-4,22.5-13.7,27.4-26.9,1.7-4.7,2.8-9.6,4.1-14.4.4-1.5,0-3.7,2.6-3.4,2.4.3,1.4,2.3,1.3,3.5-.4,14.8-1,29.6-1.3,44.4-.1,3.7-1.9,3.8-4.7,3.8C1485.5,313.8,1462,313.9,1438.5,313.9Z"/><path class="cls-2" d="M1578.5,301.7c-9.4,9.8-20.3,15.2-33.7,14.2a42,42,0,0,1-9.3-1.5c-10.6-2.9-17-10.1-18.2-20.1-1.3-10.7,3.8-20.5,13.5-25.8,7.4-4,15.7-5.4,23.6-7.7,5.6-1.6,11.2-3.2,16.1-6.4,3-2,5.7-4.5,6.5-8,2.3-9.8,2.2-19.6-2.6-28.7-3.4-6.4-9.4-9.4-16.5-9.3s-12.1,4-14.9,10.6c-.9,2.2-1.9,4.3-2.8,6.4-1.9,4.4-5.4,6.2-10,5.8-4.4-.3-7.6-2.7-8.8-6.9-1.3-4.4.2-8.2,3.9-11,6.3-4.8,13.9-6.3,21.5-7.4a67.24,67.24,0,0,1,35.2,4.4c11.3,4.5,15.5,10.6,15.6,22.8l.3,57a37,37,0,0,0,.9,9.4c1,4,3,7.2,7.2,8.1s8.3.4,11.3-3.3c.4-.5.9-1,1.3-1.5.8-1,1.6-1.8,2.9-.8,1,.8.4,1.8,0,2.7a17.42,17.42,0,0,1-10.3,9.6c-11.8,4.2-23.6.5-30.7-9.8A17.34,17.34,0,0,1,1578.5,301.7Zm0-48.9c-9.1,7.4-19.1,11.2-27.7,17.3a27.17,27.17,0,0,0-11.5,19c-1.2,8.3,2.5,16.8,8.8,20.3,6,3.3,14.5,1.7,20.7-3.9a27.08,27.08,0,0,0,7.6-13.2C1579.7,279.8,1578.1,266.9,1578.5,252.8Z"/><path class="cls-3" d="M1642.9,259.6c-.2-9.2.1-18.3,2.1-27.3a34.17,34.17,0,0,1,5.1-12.3c8.4-11.7,22.7-14,34.2-5.4,10.3,7.8,15.6,18.8,18,31.2,3.5,17.8,2.5,35.1-7.2,51.1-4.6,7.6-10.9,13.4-19.9,15.4-14,3.1-25.8-4.2-29.1-18A134.83,134.83,0,0,1,1642.9,259.6Z"/><path class="cls-3" d="M1578.5,252.8c-.3,14,1.2,26.9-2.2,39.6a25.62,25.62,0,0,1-7.6,13.2c-6.1,5.6-14.7,7.2-20.7,3.9-6.2-3.4-9.9-11.9-8.8-20.3a27,27,0,0,1,11.5-19C1559.4,264,1569.4,260.2,1578.5,252.8Z"/></g><g id="Layer_2" data-name="Layer 2"><g id="g7130"><path id="path7134" class="cls-4" d="M435.42,149.42h0a4.3,4.3,0,0,0-3.83-2.36h-3.5A2.37,2.37,0,0,0,426,150.5l5.85,11.67,5.34,9.09a57.67,57.67,0,0,0,16.66,18l34.79,24.34A43.43,43.43,0,0,1,500.44,226l11.35,18.24,1.66-14.7-9.15-16.32a33.94,33.94,0,0,0-10.75-11.62l-37.67-25.16-3.65-3.33a65.78,65.78,0,0,1-14.38-18.91l-2.44-4.82"/><path id="path7136" class="cls-4" d="M456,285.78h0l-12.57-11.46-7.55-18.49.27-7.09-3.67,12.67,2,7.75a36.22,36.22,0,0,0,15.35,21.41L482.77,312a19.94,19.94,0,0,0,10.87,3.23H495a3.33,3.33,0,0,0,1.65-6.23L456,285.78"/><path id="path7138" class="cls-4" d="M511,171.92h0l.14.27a5.15,5.15,0,0,1,.38,3.93l-1.43,4.63a1.79,1.79,0,0,1-3.12.57L488.2,157.13a3.82,3.82,0,0,1,3.21-6.15l5.85.3a5.11,5.11,0,0,1,4.25,2.71L511,171.92"/><path id="path7140" class="cls-5" d="M500.78,159.41h0a2.65,2.65,0,0,1-2.61,3.88l-27.55-2.84a2.59,2.59,0,0,0-.54,0L439.2,163.6a2.65,2.65,0,0,1-2.66-1.49l-3.25-6.81a2.65,2.65,0,0,1,2.9-3.74L469.29,158a2.66,2.66,0,0,0,.8,0l25.83-2.86a3.68,3.68,0,0,1,3.66,1.93l1.21,2.27"/><path id="path7142" class="cls-5" d="M509.22,177.62h0a2.64,2.64,0,0,1,.37,1.13h0a2.65,2.65,0,0,1-2.91,2.87l-22.92-2.38a2.66,2.66,0,0,0-.49,0L454,181.65a2.64,2.64,0,0,1-2-.69l-2.58-2.36a2.65,2.65,0,0,1,2-4.59l31.2,2.77a2.63,2.63,0,0,0,.82-.06l19.2-4.38a4.17,4.17,0,0,1,4.49,1.91l2,3.37"/><path id="path7144" class="cls-5" d="M473.72,193.11l15.79,2.64a2.65,2.65,0,0,0,1.34-.12l6.48-2.35a2.65,2.65,0,0,1,3.4,3.36l-.13.36a2.65,2.65,0,0,1-2.71,1.77l-7.14-.56a2.64,2.64,0,0,0-1.09.14l-8.39,3a2.65,2.65,0,0,1-2.77-.64l-5.71-5.79a1.05,1.05,0,0,1,.92-1.77"/><path id="path7146" class="cls-5" d="M439.75,273.59h0a2.65,2.65,0,0,0,3,1.78l16.4-3.17a2.66,2.66,0,0,1,.65,0l12.16.66a2.65,2.65,0,0,0,2.5-1.45l.43-.85a2.65,2.65,0,0,0-3-3.77l-11.91,3a2.64,2.64,0,0,1-1,0L440,266.94a1.62,1.62,0,0,0-1.78,2.11l1.48,4.54"/><path id="path7148" class="cls-5" d="M495.51,214.1l-4.11,2a2.64,2.64,0,0,1-1.19.27l-16.81-.23a2.65,2.65,0,0,0-2.61,2l-.9,3.84a2.65,2.65,0,0,0,3.45,3.11L490.88,219a2.65,2.65,0,0,1,1.38-.1l4.29.83a2.65,2.65,0,0,0,2.74-4l-.38-.6a2.65,2.65,0,0,0-3.39-1"/><path id="path7150" class="cls-5" d="M509.51,233.19h0a2.65,2.65,0,0,1-2.58,3.56L486,236a2.62,2.62,0,0,0-.6,0l-34.17,6.71a2.65,2.65,0,0,1-2.72-4.05l4.5-6.84a2.65,2.65,0,0,1,2.5-1.18l29.8,3.28a2.64,2.64,0,0,0,.78,0l20-3.77a2.69,2.69,0,0,1,3,1.71l.47,1.28"/><path id="path7152" class="cls-5" d="M481.38,303.24h0a2.65,2.65,0,0,1-1.75,4.81l-18.17-1.3-.64,0L441,309.57a2.65,2.65,0,0,1-2.62-4l2.33-3.78a2.65,2.65,0,0,1,2.93-1.17l16.89,4.45a2.66,2.66,0,0,0,1.3,0l16.34-2.77a3.7,3.7,0,0,1,2.74.61l.48.33"/><path id="path7154" class="cls-5" d="M500.89,245.94l-5.09,10.18a2.65,2.65,0,0,1-2.65,1.45l-27.7-2.94a2.63,2.63,0,0,0-.7,0l-27,4.32a2.65,2.65,0,0,1-2.71-3.94l1.6-2.75a2.65,2.65,0,0,1,2.46-1.31l25.64,1.64a2.61,2.61,0,0,0,.65,0l35.46-6.61h0"/><path id="path7156" class="cls-6" d="M506.08,183.45l5.72-8.72-.31,13.07a6.55,6.55,0,0,1-1.37,3.85l-5.93,7.67A72,72,0,0,1,488.92,214l-35.25,25a35.9,35.9,0,0,0-6,5.38s-12.15,12.33-15.14,17c.47-2.41.6-3.72.6-3.72A44.21,44.21,0,0,1,442,237.43l2.93-3.74A37.29,37.29,0,0,1,453,226l34.57-23.92a54.12,54.12,0,0,0,7.64-6.41l5-5.09a45.57,45.57,0,0,0,5.78-7.16h0"/><path id="path7158" class="cls-6" d="M483,258.72l-23.2,16.05a70.15,70.15,0,0,0-18.9,19.44l-13.08,20.11a1.35,1.35,0,0,0,1.13,2.08H435a4.29,4.29,0,0,0,3.68-2.09l3.16-5.29a78.86,78.86,0,0,1,22-23.86l23.92-17a135,135,0,0,0,18.26-15.6l3.92-4a10.58,10.58,0,0,0,3-7l.45-12,0,.06a31.46,31.46,0,0,1-6.83,10l-1,1a26.17,26.17,0,0,1-2.33,2.07L483,258.72"/><path id="path7160" class="cls-1" d="M143,140V319.19h38.57V215.64L232,319.19h45.79V140H239.25V243.28L188.44,140Z"/><path id="path7162" class="cls-1" d="M334.83,241.1v46.71h24.76q15.69,0,23.17-6t7.48-18.39q0-22.31-31.87-22.31H334.83Zm0-30.16h22.07q15.45,0,22.37-4.78t6.93-15.81q0-10.3-7.54-14.77t-23.84-4.48h-20v39.84Zm-38-71H352.6q38.13,0,55.35,10.85t17.22,34.51q0,16.06-7.54,26.36a30.11,30.11,0,0,1-20,12.38v1.23q17,3.8,24.58,14.22t7.54,27.71q0,24.52-17.71,38.25t-48.12,13.73H296.82V140"/><path id="path7164" class="cls-1" d="M630.21,268.3q0,23.66-17.47,37.27t-48.61,13.62q-28.69,0-50.75-10.51V274.27q18.14,7.89,30.71,11.11a93.07,93.07,0,0,0,23,3.23q12.5,0,19.18-4.66t6.68-13.86A15,15,0,0,0,590,261a32.66,32.66,0,0,0-8.64-7.71q-5.7-3.7-23.23-11.83Q541.7,233.89,533.49,227a54.45,54.45,0,0,1-13.12-16.13q-4.9-9.2-4.9-21.5,0-23.18,16.12-36.44t44.56-13.26c9.32,0,14.77,1.27,23.17,3.64,9.35,2.64,14.14,3.72,23.15,7.18l.48,35.14a99.85,99.85,0,0,0-28.21-13.39c-6.5-2-13.78-1.75-19.82-1.75q-10.79,0-16.55,4.9a16,16,0,0,0-5.76,12.78,15.5,15.5,0,0,0,2.33,8.54,25.28,25.28,0,0,0,7.42,7q5.09,3.4,24.09,12.24,25.13,11.71,34.45,23.48t9.32,28.85"/></g></g></svg>